<mxfile host="app.diagrams.net" modified="2022-01-20T13:05:32.739Z" agent="5.0 (Windows NT 10.0; Win64; x64) AppleWebKit/537.36 (KHTML, like Gecko) Chrome/97.0.4692.71 Safari/537.36" etag="cWc7IVuhlPf4_qDY0Ktq" version="16.4.2" type="github">
  <diagram id="8HBrPwVohqAJFLUpzc_i" name="Page-1">
    <mxGraphModel dx="782" dy="1597" grid="1" gridSize="10" guides="1" tooltips="1" connect="1" arrows="1" fold="1" page="1" pageScale="1" pageWidth="827" pageHeight="1169" math="0" shadow="0">
      <root>
        <mxCell id="0" />
        <mxCell id="1" parent="0" />
        <mxCell id="TV3-apBF_OgWpbIYJi4T-2" value="&lt;h3 dir=&quot;auto&quot; style=&quot;box-sizing: border-box ; margin-top: 24px ; margin-bottom: 16px ; font-size: 1.25em ; line-height: 1.25 ; color: rgb(36 , 41 , 47) ; font-family: , &amp;#34;blinkmacsystemfont&amp;#34; , &amp;#34;segoe ui&amp;#34; , &amp;#34;helvetica&amp;#34; , &amp;#34;arial&amp;#34; , sans-serif , &amp;#34;apple color emoji&amp;#34; , &amp;#34;segoe ui emoji&amp;#34; ; background-color: rgb(255 , 255 , 255)&quot;&gt;Function to retrieve messages&lt;/h3&gt;" style="text;html=1;strokeColor=none;fillColor=none;align=center;verticalAlign=middle;whiteSpace=wrap;rounded=0;" vertex="1" parent="1">
          <mxGeometry y="-390" width="230" height="30" as="geometry" />
        </mxCell>
        <mxCell id="TV3-apBF_OgWpbIYJi4T-6" style="edgeStyle=orthogonalEdgeStyle;rounded=0;orthogonalLoop=1;jettySize=auto;html=1;entryX=0;entryY=0.5;entryDx=0;entryDy=0;" edge="1" parent="1" source="TV3-apBF_OgWpbIYJi4T-3" target="TV3-apBF_OgWpbIYJi4T-5">
          <mxGeometry relative="1" as="geometry" />
        </mxCell>
        <mxCell id="TV3-apBF_OgWpbIYJi4T-7" style="edgeStyle=orthogonalEdgeStyle;rounded=0;orthogonalLoop=1;jettySize=auto;html=1;exitX=1;exitY=0.5;exitDx=0;exitDy=0;entryX=0;entryY=0.5;entryDx=0;entryDy=0;" edge="1" parent="1" source="TV3-apBF_OgWpbIYJi4T-3" target="TV3-apBF_OgWpbIYJi4T-4">
          <mxGeometry relative="1" as="geometry" />
        </mxCell>
        <mxCell id="TV3-apBF_OgWpbIYJi4T-3" value="&lt;span style=&quot;color: rgb(36 , 41 , 47) ; font-family: , &amp;#34;blinkmacsystemfont&amp;#34; , &amp;#34;segoe ui&amp;#34; , &amp;#34;helvetica&amp;#34; , &amp;#34;arial&amp;#34; , sans-serif , &amp;#34;apple color emoji&amp;#34; , &amp;#34;segoe ui emoji&amp;#34; ; font-size: 16px ; text-align: left ; background-color: rgb(255 , 255 , 255)&quot;&gt;slackAPI detects a message sent to a specified channel.&lt;/span&gt;" style="ellipse;whiteSpace=wrap;html=1;" vertex="1" parent="1">
          <mxGeometry x="50" y="-320" width="260" height="80" as="geometry" />
        </mxCell>
        <mxCell id="TV3-apBF_OgWpbIYJi4T-4" value="&lt;span style=&quot;color: rgb(36 , 41 , 47) ; font-family: , &amp;#34;blinkmacsystemfont&amp;#34; , &amp;#34;segoe ui&amp;#34; , &amp;#34;helvetica&amp;#34; , &amp;#34;arial&amp;#34; , sans-serif , &amp;#34;apple color emoji&amp;#34; , &amp;#34;segoe ui emoji&amp;#34; ; font-size: 16px ; text-align: left ; background-color: rgb(255 , 255 , 255)&quot;&gt;Failed to retrieve message.&lt;/span&gt;" style="ellipse;whiteSpace=wrap;html=1;" vertex="1" parent="1">
          <mxGeometry x="430" y="-190" width="240" height="80" as="geometry" />
        </mxCell>
        <mxCell id="TV3-apBF_OgWpbIYJi4T-5" value="&lt;span style=&quot;color: rgb(36 , 41 , 47) ; font-family: , &amp;#34;blinkmacsystemfont&amp;#34; , &amp;#34;segoe ui&amp;#34; , &amp;#34;helvetica&amp;#34; , &amp;#34;arial&amp;#34; , sans-serif , &amp;#34;apple color emoji&amp;#34; , &amp;#34;segoe ui emoji&amp;#34; ; font-size: 16px ; text-align: left ; background-color: rgb(255 , 255 , 255)&quot;&gt;Retrieve the message that was sent.&lt;/span&gt;" style="ellipse;whiteSpace=wrap;html=1;" vertex="1" parent="1">
          <mxGeometry x="430" y="-320" width="240" height="80" as="geometry" />
        </mxCell>
      </root>
    </mxGraphModel>
  </diagram>
</mxfile>
